<svg width="22" height="21" viewBox="0 0 22 21" fill="none" xmlns="http://www.w3.org/2000/svg">
<path d="M1.91445 9.50012H21.0434C21.297 9.50012 21.5403 9.60547 21.7197 9.79298C21.8991 9.98049 21.9998 10.2348 21.9998 10.5C21.9998 10.7652 21.8991 11.0195 21.7197 11.207C21.5403 11.3945 21.297 11.4999 21.0434 11.4999H1.91445C1.66079 11.4999 1.41751 11.3945 1.23814 11.207C1.05878 11.0195 0.958008 10.7652 0.958008 10.5C0.958008 10.2348 1.05878 9.98049 1.23814 9.79298C1.41751 9.60547 1.66079 9.50012 1.91445 9.50012Z" fill="#1E1E1E"/>
<path d="M2.31057 10.5L10.2433 18.791C10.4229 18.9787 10.5238 19.2333 10.5238 19.4989C10.5238 19.7644 10.4229 20.019 10.2433 20.2068C10.0637 20.3945 9.82015 20.5 9.56617 20.5C9.31218 20.5 9.0686 20.3945 8.889 20.2068L0.280992 11.2079C0.191921 11.115 0.121254 11.0047 0.0730367 10.8832C0.0248195 10.7617 0 10.6315 0 10.5C0 10.3685 0.0248195 10.2383 0.0730367 10.1168C0.121254 9.99531 0.191921 9.88497 0.280992 9.79209L8.889 0.793226C9.0686 0.605476 9.31218 0.5 9.56617 0.5C9.82015 0.5 10.0637 0.605476 10.2433 0.793226C10.4229 0.980976 10.5238 1.23562 10.5238 1.50114C10.5238 1.76665 10.4229 2.0213 10.2433 2.20905L2.31057 10.5Z" fill="#1E1E1E"/>
</svg>
