<svg width="25" height="22" viewBox="0 0 25 22" fill="none" xmlns="http://www.w3.org/2000/svg">
    <mask id="path-1-outside-1_396_917" maskUnits="userSpaceOnUse" x="0" y="0" width="25" height="22" fill="none">
        <rect fill="white" width="25" height="22"/>
        <path d="M23.6162 17.3209H22.8926V1.28759C22.8926 1.12874 22.7639 1 22.605 1H20.2019C20.0431 1 19.9143 1.12874 19.9143 1.28759V2.00128H13.9862V1.28759C13.9862 1.12874 13.8574 1 13.6986 1H11.2955C11.1366 1 11.0079 1.12874 11.0079 1.28759V2.00128H5.07964V1.28759C5.07964 1.12874 4.9509 1 4.79205 1H2.389C2.23015 1 2.10141 1.12874 2.10141 1.28759V17.3208H1.28759C1.12874 17.3208 1 17.4496 1 17.6084V20.7124C1 20.8713 1.12874 21 1.28759 21H3.84018C3.99903 21 4.12777 20.8713 4.12777 20.7124V20.2991H20.776V20.7124C20.776 20.8713 20.9047 21 21.0636 21H23.6162C23.775 21 23.9038 20.8713 23.9038 20.7124V17.6084C23.9038 17.4496 23.775 17.3209 23.6162 17.3209ZM20.4895 17.3209V8.98468H22.3174V17.3209H20.4895ZM5.07964 17.3209V10.5367H10.1839C10.0069 10.887 9.90648 11.2824 9.90648 11.7009C9.90648 13.1294 11.0686 14.2914 12.497 14.2914C13.9254 14.2914 15.0875 13.1293 15.0875 11.7009C15.0875 11.2824 14.9871 10.887 14.81 10.5367H19.9143V17.3209H5.07964ZM5.07964 7.43269H11.0079V8.4095H5.07964V7.43269ZM11.6681 8.98468V9.24717C11.2461 9.39013 10.8723 9.6384 10.579 9.96144H5.07964V8.98463L11.6681 8.98468ZM19.9144 8.98468V9.96149H14.415C14.1218 9.63834 13.7478 9.39007 13.3257 9.24717V8.98473L19.9144 8.98468ZM13.9862 8.4095V7.43269H19.9142V8.4095H13.9862ZM12.497 9.68556C13.6083 9.68556 14.5124 10.5896 14.5124 11.7009C14.5124 12.8121 13.6083 13.7162 12.497 13.7162C11.3858 13.7162 10.4817 12.8121 10.4817 11.7009C10.4817 10.5896 11.3857 9.68556 12.497 9.68556ZM12.7505 9.12298C12.6671 9.11483 12.5826 9.11043 12.497 9.11043C12.4114 9.11043 12.3268 9.11483 12.2433 9.12298V8.98468H12.7505L12.7505 9.12298ZM22.3174 1.57518V8.4095H20.4895V1.57518H22.3174ZM19.9144 2.57646V6.85751H13.9862V2.57646H19.9144ZM11.5831 1.57518H13.411V8.4095H11.5831V1.57518ZM11.0079 2.57646V6.85751H5.07964V2.57646H11.0079ZM4.50446 1.57518V8.40945H2.67659V1.57518H4.50446ZM2.67659 8.98468H4.50451V17.3209H2.67659V8.98468ZM3.55259 20.4249H1.57518V17.8961H3.55259V20.4249ZM4.12777 19.7239V17.896H20.776V19.7239H4.12777ZM23.3286 20.4249H21.3512V17.8961H23.3286V20.4249Z"/>
        <path d="M12.4971 13.1105C13.2744 13.1105 13.9067 12.4782 13.9067 11.7009C13.9067 10.9237 13.2744 10.2913 12.4971 10.2913C11.7199 10.2913 11.0875 10.9237 11.0875 11.7009C11.0875 12.4782 11.7198 13.1105 12.4971 13.1105ZM12.4971 10.8665C12.9572 10.8665 13.3315 11.2408 13.3315 11.7009C13.3315 12.161 12.9572 12.5354 12.4971 12.5354C12.037 12.5354 11.6627 12.161 11.6627 11.7009C11.6627 11.2408 12.037 10.8665 12.4971 10.8665Z"/>
    </mask>
    <path d="M23.6162 17.3209H22.8926V1.28759C22.8926 1.12874 22.7639 1 22.605 1H20.2019C20.0431 1 19.9143 1.12874 19.9143 1.28759V2.00128H13.9862V1.28759C13.9862 1.12874 13.8574 1 13.6986 1H11.2955C11.1366 1 11.0079 1.12874 11.0079 1.28759V2.00128H5.07964V1.28759C5.07964 1.12874 4.9509 1 4.79205 1H2.389C2.23015 1 2.10141 1.12874 2.10141 1.28759V17.3208H1.28759C1.12874 17.3208 1 17.4496 1 17.6084V20.7124C1 20.8713 1.12874 21 1.28759 21H3.84018C3.99903 21 4.12777 20.8713 4.12777 20.7124V20.2991H20.776V20.7124C20.776 20.8713 20.9047 21 21.0636 21H23.6162C23.775 21 23.9038 20.8713 23.9038 20.7124V17.6084C23.9038 17.4496 23.775 17.3209 23.6162 17.3209ZM20.4895 17.3209V8.98468H22.3174V17.3209H20.4895ZM5.07964 17.3209V10.5367H10.1839C10.0069 10.887 9.90648 11.2824 9.90648 11.7009C9.90648 13.1294 11.0686 14.2914 12.497 14.2914C13.9254 14.2914 15.0875 13.1293 15.0875 11.7009C15.0875 11.2824 14.9871 10.887 14.81 10.5367H19.9143V17.3209H5.07964ZM5.07964 7.43269H11.0079V8.4095H5.07964V7.43269ZM11.6681 8.98468V9.24717C11.2461 9.39013 10.8723 9.6384 10.579 9.96144H5.07964V8.98463L11.6681 8.98468ZM19.9144 8.98468V9.96149H14.415C14.1218 9.63834 13.7478 9.39007 13.3257 9.24717V8.98473L19.9144 8.98468ZM13.9862 8.4095V7.43269H19.9142V8.4095H13.9862ZM12.497 9.68556C13.6083 9.68556 14.5124 10.5896 14.5124 11.7009C14.5124 12.8121 13.6083 13.7162 12.497 13.7162C11.3858 13.7162 10.4817 12.8121 10.4817 11.7009C10.4817 10.5896 11.3857 9.68556 12.497 9.68556ZM12.7505 9.12298C12.6671 9.11483 12.5826 9.11043 12.497 9.11043C12.4114 9.11043 12.3268 9.11483 12.2433 9.12298V8.98468H12.7505L12.7505 9.12298ZM22.3174 1.57518V8.4095H20.4895V1.57518H22.3174ZM19.9144 2.57646V6.85751H13.9862V2.57646H19.9144ZM11.5831 1.57518H13.411V8.4095H11.5831V1.57518ZM11.0079 2.57646V6.85751H5.07964V2.57646H11.0079ZM4.50446 1.57518V8.40945H2.67659V1.57518H4.50446ZM2.67659 8.98468H4.50451V17.3209H2.67659V8.98468ZM3.55259 20.4249H1.57518V17.8961H3.55259V20.4249ZM4.12777 19.7239V17.896H20.776V19.7239H4.12777ZM23.3286 20.4249H21.3512V17.8961H23.3286V20.4249Z"
          fill="currentColor"/>
    <path d="M12.4971 13.1105C13.2744 13.1105 13.9067 12.4782 13.9067 11.7009C13.9067 10.9237 13.2744 10.2913 12.4971 10.2913C11.7199 10.2913 11.0875 10.9237 11.0875 11.7009C11.0875 12.4782 11.7198 13.1105 12.4971 13.1105ZM12.4971 10.8665C12.9572 10.8665 13.3315 11.2408 13.3315 11.7009C13.3315 12.161 12.9572 12.5354 12.4971 12.5354C12.037 12.5354 11.6627 12.161 11.6627 11.7009C11.6627 11.2408 12.037 10.8665 12.4971 10.8665Z"
          fill="currentColor"/>
    <path d="M23.6162 17.3209H22.8926V1.28759C22.8926 1.12874 22.7639 1 22.605 1H20.2019C20.0431 1 19.9143 1.12874 19.9143 1.28759V2.00128H13.9862V1.28759C13.9862 1.12874 13.8574 1 13.6986 1H11.2955C11.1366 1 11.0079 1.12874 11.0079 1.28759V2.00128H5.07964V1.28759C5.07964 1.12874 4.9509 1 4.79205 1H2.389C2.23015 1 2.10141 1.12874 2.10141 1.28759V17.3208H1.28759C1.12874 17.3208 1 17.4496 1 17.6084V20.7124C1 20.8713 1.12874 21 1.28759 21H3.84018C3.99903 21 4.12777 20.8713 4.12777 20.7124V20.2991H20.776V20.7124C20.776 20.8713 20.9047 21 21.0636 21H23.6162C23.775 21 23.9038 20.8713 23.9038 20.7124V17.6084C23.9038 17.4496 23.775 17.3209 23.6162 17.3209ZM20.4895 17.3209V8.98468H22.3174V17.3209H20.4895ZM5.07964 17.3209V10.5367H10.1839C10.0069 10.887 9.90648 11.2824 9.90648 11.7009C9.90648 13.1294 11.0686 14.2914 12.497 14.2914C13.9254 14.2914 15.0875 13.1293 15.0875 11.7009C15.0875 11.2824 14.9871 10.887 14.81 10.5367H19.9143V17.3209H5.07964ZM5.07964 7.43269H11.0079V8.4095H5.07964V7.43269ZM11.6681 8.98468V9.24717C11.2461 9.39013 10.8723 9.6384 10.579 9.96144H5.07964V8.98463L11.6681 8.98468ZM19.9144 8.98468V9.96149H14.415C14.1218 9.63834 13.7478 9.39007 13.3257 9.24717V8.98473L19.9144 8.98468ZM13.9862 8.4095V7.43269H19.9142V8.4095H13.9862ZM12.497 9.68556C13.6083 9.68556 14.5124 10.5896 14.5124 11.7009C14.5124 12.8121 13.6083 13.7162 12.497 13.7162C11.3858 13.7162 10.4817 12.8121 10.4817 11.7009C10.4817 10.5896 11.3857 9.68556 12.497 9.68556ZM12.7505 9.12298C12.6671 9.11483 12.5826 9.11043 12.497 9.11043C12.4114 9.11043 12.3268 9.11483 12.2433 9.12298V8.98468H12.7505L12.7505 9.12298ZM22.3174 1.57518V8.4095H20.4895V1.57518H22.3174ZM19.9144 2.57646V6.85751H13.9862V2.57646H19.9144ZM11.5831 1.57518H13.411V8.4095H11.5831V1.57518ZM11.0079 2.57646V6.85751H5.07964V2.57646H11.0079ZM4.50446 1.57518V8.40945H2.67659V1.57518H4.50446ZM2.67659 8.98468H4.50451V17.3209H2.67659V8.98468ZM3.55259 20.4249H1.57518V17.8961H3.55259V20.4249ZM4.12777 19.7239V17.896H20.776V19.7239H4.12777ZM23.3286 20.4249H21.3512V17.8961H23.3286V20.4249Z"
          stroke="currentColor" stroke-width="0.4" mask="url(#path-1-outside-1_396_917)"/>
    <path d="M12.4971 13.1105C13.2744 13.1105 13.9067 12.4782 13.9067 11.7009C13.9067 10.9237 13.2744 10.2913 12.4971 10.2913C11.7199 10.2913 11.0875 10.9237 11.0875 11.7009C11.0875 12.4782 11.7198 13.1105 12.4971 13.1105ZM12.4971 10.8665C12.9572 10.8665 13.3315 11.2408 13.3315 11.7009C13.3315 12.161 12.9572 12.5354 12.4971 12.5354C12.037 12.5354 11.6627 12.161 11.6627 11.7009C11.6627 11.2408 12.037 10.8665 12.4971 10.8665Z"
          stroke="currentColor" stroke-width="0.4" mask="url(#path-1-outside-1_396_917)"/>
</svg>