<svg width="29" height="26" viewBox="0 0 29 26" fill="none" xmlns="http://www.w3.org/2000/svg">
    <mask id="path-1-outside-1_169_1811" maskUnits="userSpaceOnUse" x="0" y="0" width="29" height="26" fill="black">
        <rect fill="white" width="29" height="26"/>
        <path d="M28.1394 20.5851H27.2711V1.34511C27.2711 1.15448 27.1166 1 26.926 1H24.0423C23.8517 1 23.6972 1.15448 23.6972 1.34511V2.20154H16.5834V1.34511C16.5834 1.15448 16.4289 1 16.2383 1H13.3546C13.164 1 13.0095 1.15448 13.0095 1.34511V2.20154H5.89556V1.34511C5.89556 1.15448 5.74108 1 5.55046 1H2.6668C2.47618 1 2.3217 1.15448 2.3217 1.34511V20.585H1.34511C1.15448 20.585 1 20.7395 1 20.9301V24.6549C1 24.8455 1.15448 25 1.34511 25H4.40821C4.59884 25 4.75332 24.8455 4.75332 24.6549V24.1589H24.7312V24.6549C24.7312 24.8455 24.8857 25 25.0763 25H28.1394C28.33 25 28.4845 24.8455 28.4845 24.6549V20.9301C28.4845 20.7396 28.33 20.5851 28.1394 20.5851ZM24.3874 20.5851V10.5816H26.5809V20.5851H24.3874ZM5.89556 20.5851V12.444H12.0207C11.8082 12.8643 11.6878 13.3388 11.6878 13.8411C11.6878 15.5552 13.0823 16.9497 14.7964 16.9497C16.5104 16.9497 17.905 15.5552 17.905 13.8411C17.905 13.3388 17.7846 12.8643 17.572 12.444H23.6972V20.5851H5.89556ZM5.89556 8.71923H13.0095V9.8914H5.89556V8.71923ZM13.8018 10.5816V10.8966C13.2953 11.0682 12.8467 11.3661 12.4948 11.7537H5.89556V10.5816L13.8018 10.5816ZM23.6972 10.5816V11.7538H17.0981C16.7461 11.366 16.2973 11.0681 15.7908 10.8966V10.5817L23.6972 10.5816ZM16.5834 9.8914V8.71923H23.6971V9.8914H16.5834ZM14.7964 11.4227C16.1299 11.4227 17.2149 12.5076 17.2149 13.8411C17.2149 15.1746 16.1299 16.2594 14.7964 16.2594C13.4629 16.2594 12.3781 15.1746 12.3781 13.8411C12.3781 12.5076 13.4629 11.4227 14.7964 11.4227ZM15.1006 10.7476C15.0005 10.7378 14.8991 10.7325 14.7964 10.7325C14.6937 10.7325 14.5921 10.7378 14.4919 10.7476V10.5816H15.1006L15.1006 10.7476ZM26.5809 1.69021V9.8914H24.3874V1.69021H26.5809ZM23.6972 2.89175V8.02901H16.5834V2.89175H23.6972ZM13.6997 1.69021H15.8932V9.8914H13.6997V1.69021ZM13.0095 2.89175V8.02901H5.89556V2.89175H13.0095ZM5.20535 1.69021V9.89134H3.01191V1.69021H5.20535ZM3.01191 10.5816H5.20541V20.5851H3.01191V10.5816ZM4.06311 24.3098H1.69021V21.2753H4.06311V24.3098ZM4.75332 23.4687V21.2752H24.7312V23.4687H4.75332ZM27.7943 24.3098H25.4214V21.2753H27.7943V24.3098Z"/>
        <path d="M14.7965 15.5326C15.7293 15.5326 16.488 14.7738 16.488 13.8411C16.488 12.9084 15.7293 12.1496 14.7965 12.1496C13.8639 12.1496 13.105 12.9084 13.105 13.8411C13.105 14.7738 13.8638 15.5326 14.7965 15.5326ZM14.7965 12.8398C15.3486 12.8398 15.7978 13.289 15.7978 13.8411C15.7978 14.3932 15.3486 14.8424 14.7965 14.8424C14.2444 14.8424 13.7952 14.3932 13.7952 13.8411C13.7952 13.289 14.2444 12.8398 14.7965 12.8398Z"/>
    </mask>
    <path d="M28.1394 20.5851H27.2711V1.34511C27.2711 1.15448 27.1166 1 26.926 1H24.0423C23.8517 1 23.6972 1.15448 23.6972 1.34511V2.20154H16.5834V1.34511C16.5834 1.15448 16.4289 1 16.2383 1H13.3546C13.164 1 13.0095 1.15448 13.0095 1.34511V2.20154H5.89556V1.34511C5.89556 1.15448 5.74108 1 5.55046 1H2.6668C2.47618 1 2.3217 1.15448 2.3217 1.34511V20.585H1.34511C1.15448 20.585 1 20.7395 1 20.9301V24.6549C1 24.8455 1.15448 25 1.34511 25H4.40821C4.59884 25 4.75332 24.8455 4.75332 24.6549V24.1589H24.7312V24.6549C24.7312 24.8455 24.8857 25 25.0763 25H28.1394C28.33 25 28.4845 24.8455 28.4845 24.6549V20.9301C28.4845 20.7396 28.33 20.5851 28.1394 20.5851ZM24.3874 20.5851V10.5816H26.5809V20.5851H24.3874ZM5.89556 20.5851V12.444H12.0207C11.8082 12.8643 11.6878 13.3388 11.6878 13.8411C11.6878 15.5552 13.0823 16.9497 14.7964 16.9497C16.5104 16.9497 17.905 15.5552 17.905 13.8411C17.905 13.3388 17.7846 12.8643 17.572 12.444H23.6972V20.5851H5.89556ZM5.89556 8.71923H13.0095V9.8914H5.89556V8.71923ZM13.8018 10.5816V10.8966C13.2953 11.0682 12.8467 11.3661 12.4948 11.7537H5.89556V10.5816L13.8018 10.5816ZM23.6972 10.5816V11.7538H17.0981C16.7461 11.366 16.2973 11.0681 15.7908 10.8966V10.5817L23.6972 10.5816ZM16.5834 9.8914V8.71923H23.6971V9.8914H16.5834ZM14.7964 11.4227C16.1299 11.4227 17.2149 12.5076 17.2149 13.8411C17.2149 15.1746 16.1299 16.2594 14.7964 16.2594C13.4629 16.2594 12.3781 15.1746 12.3781 13.8411C12.3781 12.5076 13.4629 11.4227 14.7964 11.4227ZM15.1006 10.7476C15.0005 10.7378 14.8991 10.7325 14.7964 10.7325C14.6937 10.7325 14.5921 10.7378 14.4919 10.7476V10.5816H15.1006L15.1006 10.7476ZM26.5809 1.69021V9.8914H24.3874V1.69021H26.5809ZM23.6972 2.89175V8.02901H16.5834V2.89175H23.6972ZM13.6997 1.69021H15.8932V9.8914H13.6997V1.69021ZM13.0095 2.89175V8.02901H5.89556V2.89175H13.0095ZM5.20535 1.69021V9.89134H3.01191V1.69021H5.20535ZM3.01191 10.5816H5.20541V20.5851H3.01191V10.5816ZM4.06311 24.3098H1.69021V21.2753H4.06311V24.3098ZM4.75332 23.4687V21.2752H24.7312V23.4687H4.75332ZM27.7943 24.3098H25.4214V21.2753H27.7943V24.3098Z" fill="#1E1E1E"/>
    <path d="M14.7965 15.5326C15.7293 15.5326 16.488 14.7738 16.488 13.8411C16.488 12.9084 15.7293 12.1496 14.7965 12.1496C13.8639 12.1496 13.105 12.9084 13.105 13.8411C13.105 14.7738 13.8638 15.5326 14.7965 15.5326ZM14.7965 12.8398C15.3486 12.8398 15.7978 13.289 15.7978 13.8411C15.7978 14.3932 15.3486 14.8424 14.7965 14.8424C14.2444 14.8424 13.7952 14.3932 13.7952 13.8411C13.7952 13.289 14.2444 12.8398 14.7965 12.8398Z" fill="#1E1E1E"/>
    <path d="M28.1394 20.5851H27.2711V1.34511C27.2711 1.15448 27.1166 1 26.926 1H24.0423C23.8517 1 23.6972 1.15448 23.6972 1.34511V2.20154H16.5834V1.34511C16.5834 1.15448 16.4289 1 16.2383 1H13.3546C13.164 1 13.0095 1.15448 13.0095 1.34511V2.20154H5.89556V1.34511C5.89556 1.15448 5.74108 1 5.55046 1H2.6668C2.47618 1 2.3217 1.15448 2.3217 1.34511V20.585H1.34511C1.15448 20.585 1 20.7395 1 20.9301V24.6549C1 24.8455 1.15448 25 1.34511 25H4.40821C4.59884 25 4.75332 24.8455 4.75332 24.6549V24.1589H24.7312V24.6549C24.7312 24.8455 24.8857 25 25.0763 25H28.1394C28.33 25 28.4845 24.8455 28.4845 24.6549V20.9301C28.4845 20.7396 28.33 20.5851 28.1394 20.5851ZM24.3874 20.5851V10.5816H26.5809V20.5851H24.3874ZM5.89556 20.5851V12.444H12.0207C11.8082 12.8643 11.6878 13.3388 11.6878 13.8411C11.6878 15.5552 13.0823 16.9497 14.7964 16.9497C16.5104 16.9497 17.905 15.5552 17.905 13.8411C17.905 13.3388 17.7846 12.8643 17.572 12.444H23.6972V20.5851H5.89556ZM5.89556 8.71923H13.0095V9.8914H5.89556V8.71923ZM13.8018 10.5816V10.8966C13.2953 11.0682 12.8467 11.3661 12.4948 11.7537H5.89556V10.5816L13.8018 10.5816ZM23.6972 10.5816V11.7538H17.0981C16.7461 11.366 16.2973 11.0681 15.7908 10.8966V10.5817L23.6972 10.5816ZM16.5834 9.8914V8.71923H23.6971V9.8914H16.5834ZM14.7964 11.4227C16.1299 11.4227 17.2149 12.5076 17.2149 13.8411C17.2149 15.1746 16.1299 16.2594 14.7964 16.2594C13.4629 16.2594 12.3781 15.1746 12.3781 13.8411C12.3781 12.5076 13.4629 11.4227 14.7964 11.4227ZM15.1006 10.7476C15.0005 10.7378 14.8991 10.7325 14.7964 10.7325C14.6937 10.7325 14.5921 10.7378 14.4919 10.7476V10.5816H15.1006L15.1006 10.7476ZM26.5809 1.69021V9.8914H24.3874V1.69021H26.5809ZM23.6972 2.89175V8.02901H16.5834V2.89175H23.6972ZM13.6997 1.69021H15.8932V9.8914H13.6997V1.69021ZM13.0095 2.89175V8.02901H5.89556V2.89175H13.0095ZM5.20535 1.69021V9.89134H3.01191V1.69021H5.20535ZM3.01191 10.5816H5.20541V20.5851H3.01191V10.5816ZM4.06311 24.3098H1.69021V21.2753H4.06311V24.3098ZM4.75332 23.4687V21.2752H24.7312V23.4687H4.75332ZM27.7943 24.3098H25.4214V21.2753H27.7943V24.3098Z" stroke="#1E1E1E" stroke-width="0.4" mask="url(#path-1-outside-1_169_1811)"/>
    <path d="M14.7965 15.5326C15.7293 15.5326 16.488 14.7738 16.488 13.8411C16.488 12.9084 15.7293 12.1496 14.7965 12.1496C13.8639 12.1496 13.105 12.9084 13.105 13.8411C13.105 14.7738 13.8638 15.5326 14.7965 15.5326ZM14.7965 12.8398C15.3486 12.8398 15.7978 13.289 15.7978 13.8411C15.7978 14.3932 15.3486 14.8424 14.7965 14.8424C14.2444 14.8424 13.7952 14.3932 13.7952 13.8411C13.7952 13.289 14.2444 12.8398 14.7965 12.8398Z" stroke="#1E1E1E" stroke-width="0.4" mask="url(#path-1-outside-1_169_1811)"/>
</svg>
