<svg width="27" height="26" viewBox="0 0 27 26" fill="none" xmlns="http://www.w3.org/2000/svg">
    <path d="M13.6577 1L16.372 7.88204C16.6225 8.51732 16.7477 8.83496 16.9396 9.1028C17.1096 9.34021 17.3174 9.54808 17.5549 9.71812C17.8228 9.90993 18.1404 10.0352 18.7757 10.2858L25.6577 13L18.7757 15.7143C18.1404 15.9648 17.8228 16.09 17.5549 16.2819C17.3174 16.4519 17.1096 16.6597 16.9396 16.8972C16.7477 17.1651 16.6225 17.4827 16.372 18.118L13.6577 25L10.9435 18.118C10.6929 17.4827 10.5676 17.1651 10.3758 16.8972C10.2058 16.6597 9.99793 16.4519 9.76051 16.2819C9.49267 16.09 9.17503 15.9648 8.53975 15.7143L1.65771 13L8.53975 10.2858C9.17503 10.0352 9.49267 9.90993 9.76051 9.71812C9.99793 9.54808 10.2058 9.34021 10.3758 9.1028C10.5676 8.83496 10.6929 8.51732 10.9435 7.88204L13.6577 1Z" stroke="#A4A4A4" stroke-width="1.9" stroke-linecap="round" stroke-linejoin="round"/>
</svg>
