<svg width="23" height="24" viewBox="0 0 23 24" fill="none" xmlns="http://www.w3.org/2000/svg">
    <path d="M11.5002 1.7561C10.3546 1.7561 9.37775 2.48784 9.01572 3.51212C8.85412 3.96933 8.35247 4.20898 7.89525 4.04738C7.43803 3.88577 7.19839 3.38412 7.36 2.92691C7.96226 1.22294 9.58731 0 11.5002 0C13.4131 0 15.0381 1.22294 15.6405 2.92691C15.802 3.38412 15.5624 3.88577 15.1052 4.04738C14.6479 4.20898 14.1463 3.96933 13.9847 3.51212C13.6227 2.48784 12.6457 1.7561 11.5002 1.7561Z"
          fill="#7D7D7D"/>
    <path d="M0.670898 5.56103C0.670898 5.0761 1.06402 4.68298 1.54895 4.68298H21.4515C21.9364 4.68298 22.3296 5.0761 22.3296 5.56103C22.3296 6.04596 21.9364 6.43908 21.4515 6.43908H1.54895C1.06402 6.43908 0.670898 6.04596 0.670898 5.56103Z"
          fill="#7D7D7D"/>
    <path d="M4.37625 8.42942C4.344 7.94555 3.9256 7.57947 3.44175 7.61172C2.95788 7.64397 2.59178 8.06237 2.62405 8.54623L3.16663 16.6848C3.26671 18.1866 3.34756 19.3996 3.53719 20.3516C3.73434 21.3412 4.06966 22.1678 4.76226 22.8157C5.45486 23.4637 6.30194 23.7433 7.30251 23.8742C8.2649 24 9.48067 24 10.9858 24H12.0146C13.5197 24 14.7354 24 15.6978 23.8742C16.6984 23.7433 17.5455 23.4637 18.2381 22.8157C18.9307 22.1678 19.266 21.3412 19.4632 20.3516C19.6527 19.3996 19.7336 18.1866 19.8337 16.6848L20.3763 8.54623C20.4085 8.06237 20.0424 7.64397 19.5586 7.61172C19.0747 7.57947 18.6563 7.94555 18.6241 8.42942L18.0856 16.5064C17.9804 18.0844 17.9054 19.1824 17.7409 20.0084C17.5812 20.8098 17.3584 21.2339 17.0383 21.5334C16.7183 21.8328 16.2802 22.027 15.47 22.1329C14.6348 22.2422 13.5343 22.2439 11.9529 22.2439H11.0475C9.46604 22.2439 8.36549 22.2422 7.53029 22.1329C6.72014 22.027 6.2821 21.8328 5.962 21.5334C5.64191 21.2339 5.41908 20.8098 5.25945 20.0084C5.09488 19.1824 5.01992 18.0844 4.91473 16.5064L4.37625 8.42942Z"
          fill="#7D7D7D"/>
    <path d="M8.48606 10.5409C8.96859 10.4927 9.39881 10.8447 9.44716 11.3273L10.0325 17.181C10.0808 17.6634 9.72872 18.0938 9.24615 18.142C8.76364 18.1903 8.33335 17.8382 8.2851 17.3556L7.69974 11.502C7.65148 11.0195 8.00353 10.5892 8.48606 10.5409Z"
          fill="#7D7D7D"/>
    <path d="M15.3006 11.502C15.3488 11.0195 14.9968 10.5892 14.5142 10.5409C14.0318 10.4927 13.6014 10.8447 13.5532 11.3273L12.9678 17.181C12.9196 17.6634 13.2716 18.0938 13.7542 18.142C14.2366 18.1903 14.6669 17.8382 14.7152 17.3556L15.3006 11.502Z"
          fill="#7D7D7D"/>
</svg>