<svg width="24" height="20" viewBox="0 0 24 20" fill="none" xmlns="http://www.w3.org/2000/svg">
    <path d="M11.5612 3.10081L12.0952 3.64223L12.6292 3.10081C15.1139 0.58147 17.7619 0.328839 19.7509 1.21606C21.7824 2.1223 23.25 4.26495 23.25 6.79891C23.25 9.38354 22.1647 11.3766 20.6149 13.0797C19.3409 14.4797 17.797 15.6411 16.303 16.765C15.9494 17.031 15.5987 17.2949 15.2549 17.5594C14.6301 18.0401 14.0637 18.4691 13.5151 18.782C12.9666 19.0947 12.5046 19.25 12.0952 19.25C11.6858 19.25 11.2238 19.0947 10.6753 18.782C10.1267 18.4691 9.56033 18.0401 8.93552 17.5594C8.59175 17.2949 8.24095 17.031 7.88736 16.765C6.39334 15.6411 4.84951 14.4797 3.57549 13.0797C2.02572 11.3766 0.94043 9.38354 0.94043 6.79891C0.94043 4.26494 2.40795 2.12229 4.43949 1.21606C6.42842 0.32884 9.07643 0.581469 11.5612 3.10081Z" stroke="#BD3333" stroke-width="1.5"/>
</svg>
