<svg width="56" height="56" viewBox="0 0 56 56" fill="none" xmlns="http://www.w3.org/2000/svg">
    <g filter="url(#filter0_d_1_7461)">
        <rect x="12" y="8" width="32" height="32" rx="16" fill="#FFC75A" shape-rendering="crispEdges"/>
        <path d="M26.7611 26.112C26.7611 25.7387 26.8197 25.408 26.9371 25.12C27.0651 24.832 27.2197 24.576 27.4011 24.352C27.5931 24.128 27.7957 23.92 28.0091 23.728C28.2224 23.536 28.4197 23.3547 28.6011 23.184C28.7931 23.0027 28.9477 22.816 29.0651 22.624C29.1931 22.432 29.2571 22.2187 29.2571 21.984C29.2571 21.6 29.0971 21.2907 28.7771 21.056C28.4677 20.8213 28.0517 20.704 27.5291 20.704C27.0277 20.704 26.5797 20.8107 26.1851 21.024C25.7904 21.2267 25.4651 21.5147 25.2091 21.888L23.2731 20.752C23.6997 20.1013 24.2917 19.584 25.0491 19.2C25.8064 18.8053 26.7237 18.608 27.8011 18.608C28.6011 18.608 29.3051 18.7253 29.9131 18.96C30.5211 19.184 30.9957 19.5147 31.3371 19.952C31.6891 20.3893 31.8651 20.928 31.8651 21.568C31.8651 21.984 31.8011 22.352 31.6731 22.672C31.5451 22.992 31.3797 23.2693 31.1771 23.504C30.9744 23.7387 30.7557 23.9573 30.5211 24.16C30.2971 24.3627 30.0837 24.56 29.8811 24.752C29.6784 24.944 29.5077 25.1467 29.3691 25.36C29.2411 25.5733 29.1771 25.824 29.1771 26.112H26.7611ZM27.9771 30.128C27.5291 30.128 27.1611 29.984 26.8731 29.696C26.5851 29.408 26.4411 29.0667 26.4411 28.672C26.4411 28.2667 26.5851 27.9307 26.8731 27.664C27.1611 27.3867 27.5291 27.248 27.9771 27.248C28.4357 27.248 28.8037 27.3867 29.0811 27.664C29.3691 27.9307 29.5131 28.2667 29.5131 28.672C29.5131 29.0667 29.3691 29.408 29.0811 29.696C28.8037 29.984 28.4357 30.128 27.9771 30.128Z" fill="black"/>
    </g>
    <defs>
        <filter id="filter0_d_1_7461" x="0" y="0" width="56" height="56" filterUnits="userSpaceOnUse" color-interpolation-filters="sRGB">
            <feFlood flood-opacity="0" result="BackgroundImageFix"/>
            <feColorMatrix in="SourceAlpha" type="matrix" values="0 0 0 0 0 0 0 0 0 0 0 0 0 0 0 0 0 0 127 0" result="hardAlpha"/>
            <feOffset dy="4"/>
            <feGaussianBlur stdDeviation="6"/>
            <feComposite in2="hardAlpha" operator="out"/>
            <feColorMatrix type="matrix" values="0 0 0 0 0 0 0 0 0 0 0 0 0 0 0 0 0 0 0.1 0"/>
            <feBlend mode="normal" in2="BackgroundImageFix" result="effect1_dropShadow_1_7461"/>
            <feBlend mode="normal" in="SourceGraphic" in2="effect1_dropShadow_1_7461" result="shape"/>
        </filter>
    </defs>
</svg>
