<svg width="53" height="62" viewBox="0 0 53 62" fill="none" xmlns="http://www.w3.org/2000/svg">
    <path d="M45.7727 20.8281H40.9545V14.5312C40.9545 6.50588 34.483 0 26.5 0C18.517 0 12.0455 6.50588 12.0455 14.5312V20.8281H7.22727C3.23577 20.8281 0 24.0811 0 28.0938V54.7344C0 58.7471 3.23577 62 7.22727 62H45.7727C49.7642 62 53 58.7471 53 54.7344V28.0938C53 24.0811 49.7642 20.8281 45.7727 20.8281ZM19.2727 14.5312C19.2727 10.5186 22.5085 7.26562 26.5 7.26562C30.4915 7.26562 33.7273 10.5186 33.7273 14.5312V20.8281H19.2727V14.5312ZM30.1136 44.0724V48.6797C30.1136 50.6861 28.4958 52.3125 26.5 52.3125C24.5042 52.3125 22.8864 50.6861 22.8864 48.6797V44.0724C20.6834 42.7908 19.2145 40.3753 19.2745 37.6187C19.359 33.7356 22.5304 30.5723 26.3936 30.5164C30.4338 30.458 33.7273 33.733 33.7273 37.7812C33.7273 40.47 32.2733 42.8161 30.1136 44.0724Z" fill="#DCDCDC"/>
</svg>
