<svg width="11" height="20" viewBox="0 0 11 20" fill="none" xmlns="http://www.w3.org/2000/svg">
    <path d="M8.68943 10L0.756666 1.70905C0.577071 1.5213 0.476177 1.26666 0.476177 1.00114C0.476176 0.73562 0.577071 0.480975 0.756666 0.293227C0.936261 0.105477 1.17984 8.58505e-07 1.43383 8.36301e-07C1.68782 8.14097e-07 1.9314 0.105477 2.11099 0.293227L10.719 9.29209C10.8081 9.38497 10.8787 9.49531 10.927 9.61678C10.9752 9.73826 11 9.86848 11 10C11 10.1315 10.9752 10.2617 10.927 10.3832C10.8787 10.5047 10.8081 10.615 10.719 10.7079L2.111 19.7068C1.9314 19.8945 1.68782 20 1.43383 20C1.17985 20 0.936263 19.8945 0.756668 19.7068C0.577073 19.519 0.476178 19.2644 0.476178 18.9989C0.476178 18.7333 0.577073 18.4787 0.756668 18.291L8.68943 10Z" fill="#1E1E1E"/>
</svg>
