<svg width="20" height="20" viewBox="0 0 20 20" fill="none" xmlns="http://www.w3.org/2000/svg">
    <path d="M13.0442 7.89941H10.2131C9.83542 7.89941 9.5293 8.20554 9.5293 8.58317C9.5293 8.9608 9.83542 9.26692 10.2131 9.26692H13.0442C13.4218 9.26692 13.7279 8.9608 13.7279 8.58317C13.7279 8.20554 13.4218 7.89941 13.0442 7.89941Z" fill="#1E1E1E" stroke="#1E1E1E" stroke-width="0.5"/>
    <path d="M13.5636 3.59019H11.7752C11.5356 3.59019 11.3414 3.78439 11.3414 4.02394C11.3414 4.09012 11.338 4.15552 11.3326 4.22033H9.3339V3.65707C10.1348 3.4618 10.731 2.73826 10.731 1.87806C10.731 0.868485 9.90972 0.0471191 8.90014 0.0471191C7.89057 0.0471191 7.0692 0.868485 7.0692 1.87806C7.0692 2.11761 7.2634 2.31181 7.50296 2.31181C7.74252 2.31181 7.93671 2.11761 7.93671 1.87806C7.93671 1.34681 8.3689 0.914628 8.90014 0.914628C9.43135 0.914628 9.86353 1.34681 9.86353 1.87806C9.86353 2.40926 9.43135 2.84145 8.90014 2.84145C8.66059 2.84145 8.46639 3.03565 8.46639 3.2752V4.22033H6.59554C6.59022 4.15552 6.58679 4.09012 6.58679 4.02394C6.58679 3.78439 6.39259 3.59019 6.15303 3.59019H1.27796C0.573299 3.59019 0 4.16349 0 4.8682V8.2029C0 8.90756 0.573299 9.48086 1.27796 9.48086H2.60914V16.9827C2.60914 17.6616 3.16145 18.214 3.84038 18.214H5.06761V18.7214C5.06761 19.4003 5.61993 19.9526 6.2989 19.9527H16.512C17.1909 19.9527 17.7432 19.4003 17.7432 18.7214V11.2195H18.722C19.4267 11.2195 20 10.6462 20 9.94155V6.60685C20 5.90214 19.4267 5.32888 18.722 5.32888H17.9979V4.8682C17.9979 4.16349 17.4246 3.59019 16.7199 3.59019H14.7912C14.9435 3.32081 15.0282 3.01222 15.0282 2.68798C15.0282 1.67837 14.2069 0.857042 13.1973 0.857042C12.1877 0.857042 11.3663 1.67841 11.3663 2.68798C11.3663 2.92754 11.5605 3.12174 11.8001 3.12174C12.0397 3.12174 12.2339 2.92754 12.2339 2.68798C12.2339 2.15674 12.666 1.72455 13.1973 1.72455C13.7285 1.72455 14.1607 2.15674 14.1607 2.68798C14.1606 3.05506 13.9645 3.44639 13.5636 3.59019ZM11.0891 5.08784C10.698 5.86583 9.89257 6.40125 8.96405 6.40125C8.03553 6.40125 7.23015 5.86587 6.83903 5.08784H11.0891ZM3.47664 16.9827V9.04707C3.47664 8.80751 3.28245 8.61331 3.04289 8.61331H1.27796C1.05163 8.61331 0.867509 8.42915 0.867509 8.20286V4.86815C0.867509 4.64182 1.05167 4.45766 1.27796 4.45766H5.74807C5.96078 6.04247 7.32194 7.26872 8.96405 7.26872C10.6062 7.26872 11.9673 6.04243 12.18 4.45766H16.7199C16.9462 4.45766 17.1304 4.64182 17.1304 4.86815V8.20286C17.1304 8.4292 16.9462 8.61331 16.7199 8.61331H14.8853C14.6457 8.61331 14.4515 8.80751 14.4515 9.04707V16.9827C14.4515 17.1833 14.2883 17.3465 14.0877 17.3465H3.84042C3.63982 17.3465 3.47664 17.1833 3.47664 16.9827ZM19.1325 9.94155C19.1325 10.1679 18.9484 10.352 18.722 10.352H17.3095C17.0699 10.352 16.8757 10.5462 16.8757 10.7858V18.7214C16.8757 18.922 16.7126 19.0852 16.512 19.0852H6.29894C6.09834 19.0851 5.93512 18.922 5.93512 18.7214V18.214H14.0877C14.7667 18.214 15.319 17.6617 15.319 16.9827V9.48086H16.7199C17.4246 9.48086 17.9979 8.90756 17.9979 8.2029V6.19639H18.722C18.9483 6.19639 19.1325 6.38055 19.1325 6.60685L19.1325 9.94155Z" fill="#1E1E1E" stroke="#1E1E1E" stroke-width="0.5"/>
</svg>
